<?xml version="1.0" encoding="UTF-8" standalone="no"?>
<!-- Created with Inkscape (http://www.inkscape.org/) -->

<svg
   xmlns:dc="http://purl.org/dc/elements/1.1/"
   xmlns:cc="http://creativecommons.org/ns#"
   xmlns:rdf="http://www.w3.org/1999/02/22-rdf-syntax-ns#"
   xmlns:svg="http://www.w3.org/2000/svg"
   xmlns="http://www.w3.org/2000/svg"
   xmlns:sodipodi="http://sodipodi.sourceforge.net/DTD/sodipodi-0.dtd"
   xmlns:inkscape="http://www.inkscape.org/namespaces/inkscape"
   width="250mm"
   height="250mm"
   viewBox="0 0 885.82679 885.82677"
   id="svg2"
   version="1.1"
   inkscape:version="0.91 r13725"
   sodipodi:docname="icon.svg">
  <defs
     id="defs4" />
  <sodipodi:namedview
     id="base"
     pagecolor="#ffffff"
     bordercolor="#666666"
     borderopacity="1.0"
     inkscape:pageopacity="0.0"
     inkscape:pageshadow="2"
     inkscape:zoom="0.35"
     inkscape:cx="-167.73538"
     inkscape:cy="457.26654"
     inkscape:document-units="px"
     inkscape:current-layer="layer1"
     showgrid="false"
     inkscape:window-width="1215"
     inkscape:window-height="776"
     inkscape:window-x="65"
     inkscape:window-y="24"
     inkscape:window-maximized="1" />
  <metadata
     id="metadata7">
    <rdf:RDF>
      <cc:Work
         rdf:about="">
        <dc:format>image/svg+xml</dc:format>
        <dc:type
           rdf:resource="http://purl.org/dc/dcmitype/StillImage" />
        <dc:title />
      </cc:Work>
    </rdf:RDF>
  </metadata>
  <g
     inkscape:label="Layer 1"
     inkscape:groupmode="layer"
     id="layer1"
     transform="translate(0,-166.53543)">
    <g
       id="g4219"
       transform="translate(0,-52)">
      <g
         style="fill:#000000;stroke:none"
         transform="matrix(0.32258089,0,0,0.32258089,110.71306,310.30749)"
         id="layer101-3">
        <path
           style="fill:#000000"
           inkscape:connector-curvature="0"
           d="m 1014,1550 c -19,-8 -21,-13 -13,-52 4,-24 8,-46 9,-50 0,-5 22,-8 49,-8 29,0 53,-5 58,-12 4,-7 10,-134 13,-283 l 5,-270 68,-3 67,-3 0,278 c 0,269 -1,280 -22,323 -29,57 -89,90 -163,89 -27,0 -60,-4 -71,-9 z"
           id="path4197" />
        <path
           style="fill:#000000"
           inkscape:connector-curvature="0"
           d="m 1403,1377 c -23,-7 -44,-15 -48,-18 -3,-3 0,-30 6,-59 11,-51 11,-52 43,-46 64,12 155,18 180,12 28,-7 35,-36 13,-54 -7,-6 -44,-19 -83,-30 -91,-25 -110,-38 -134,-88 -64,-131 51,-248 227,-230 33,4 74,11 90,17 l 29,10 -10,55 c -8,49 -12,55 -30,49 -12,-3 -50,-8 -86,-11 -72,-6 -109,9 -97,40 7,18 20,24 126,58 96,30 116,54 116,143 0,74 -19,107 -80,139 -48,24 -196,32 -262,13 z"
           id="path4199" />
        <path
           style="fill:#000000"
           inkscape:connector-curvature="0"
           d="m 927,1367 c -50,-16 -84,-50 -97,-97 -6,-23 -9,-153 -8,-331 l 3,-294 68,-11 67,-11 0,299 c 0,285 1,299 20,318 11,11 29,20 40,20 23,0 24,2 9,70 -10,45 -13,50 -37,49 -15,0 -44,-6 -65,-12 z"
           id="path4201" />
        <path
           style="fill:#000000"
           inkscape:connector-curvature="0"
           d="m 280,1011 c 0,-198 4,-362 8,-365 4,-2 36,-8 70,-12 l 62,-7 0,115 0,115 78,-1 c 94,-1 147,24 183,88 23,39 24,53 27,234 l 4,192 -71,0 -71,0 0,-167 c 0,-115 -4,-176 -13,-193 -16,-31 -54,-45 -100,-36 l -37,7 0,194 0,195 -70,0 -70,0 0,-359 z"
           id="path4203" />
        <path
           style="fill:#000000"
           inkscape:connector-curvature="0"
           d="m 1145,775 c -35,-34 -33,-78 4,-116 33,-33 50,-35 91,-14 50,26 57,94 14,133 -33,29 -78,29 -109,-3 z"
           id="path4205" />
      </g>
    </g>
  </g>
</svg>
